_________________________  Visit us at _________________________
  
http://p2pdl.com  ____________________________  http://p2pdl.com


 
http://www.shotpix.com/images/98915439294931601721.jpg


Victoria Justice - All I Want Is Everything {M4A+MP4} (1080p) x264 [VX] [P2PDL]


                        1080p Full HD MP4 Video
                                   +
                        128 Kbps/VBR M4A Audio

General
Format                         : MPEG-4
Format profile                 : Base Media / Version 2
Codec ID                       : mp42
File size                      : 40.8 MiB
Duration                       : 3mn 49s

Video
ID                             : 1
Format                         : AVC
Format/Info                    : Advanced Video Codec
Bit rate                       : 1 350 Kbps
Width                          : 1 920 pixels
Height                         : 1 080 pixels
Display aspect ratio           : 16:9
Frame rate mode                : Variable
Frame rate                     : 23.976 fps
Color space                    : YUV
Scan type                      : Progressive
Bits/(Pixel*Frame)             : 0.027
Stream size                    : 37.2 MiB (91%)
Writing library                : x264 core 128

Audio
ID                             : 2
Format                         : AAC
Format/Info                    : Advanced Audio Codec
Format profile                 : LC
Codec ID                       : 40
Duration                       : 3mn 49s
Bit rate mode                  : Variable
Bit rate                       : 128 Kbps
Channel(s)                     : 2 channels
Channel positions              : Front: L R
Sampling rate                  : 48.0 KHz
Stream size                    : 3.50 MiB (9%)

Subtitles                      : No



Screens:
 
http://www.shotpix.com/images/10631871911299103323.jpg 
http://www.shotpix.com/images/99408445094365604132.jpg

Thumbs:
 
http://www.shotpix.com/images/34379184517749224351.jpg

Bonus:
 
http://www.shotpix.com/images/86518261292117105566.png

------------------------------------------------------------------------

Notes:

* Recommended to use latest version VLC Media Player.
* Install shark007 codecs in case of any kind of problem in playback (For non-VLC Media Player users).
* Alternatively, install Core AVC codecs, the fastest decoder that there is coupled with Community Center Codec Pack and play on Windows Media Player Classic.

Greets to: VYTO, a2zRG, Stumpie1971, Sheychi, Caveman, Ash968, Neon, Masta and staff members at ExtraTorrent, TPB,KAT, 1337x, PublicHD, Ahashare, TorrentMafia, Limetorrents, BTScene, P2PDL, and all others

Encoder Notes: Looking For Early Access To Anything You Can Provide DVDScr, R5, DVDRips, BluRay, Direct Audio, Early Music
Releases, Seedboxes, Links, Dedicated Servers anything u can provide, Advance / Promo CDs/DVDs. If You Got anything to
offer contact me at "prg@hush.com"

Facebook Fan Page: www . facebook . com / p2pdl